<mxfile host="65bd71144e">
    <diagram id="b2IDfe2Xum-DoXYKyvs9" name="Page-1">
        <mxGraphModel dx="1399" dy="674" grid="0" gridSize="10" guides="1" tooltips="1" connect="1" arrows="1" fold="1" page="1" pageScale="1" pageWidth="1100" pageHeight="850" background="#ffffff" math="0" shadow="0">
            <root>
                <mxCell id="0"/>
                <mxCell id="1" parent="0"/>
                <mxCell id="18" value="" style="group;sketch=1;curveFitting=1;jiggle=2;" vertex="1" connectable="0" parent="1">
                    <mxGeometry x="73" y="105" width="955" height="640" as="geometry"/>
                </mxCell>
                <mxCell id="2" value="&lt;font style=&quot;font-size: 30px;&quot;&gt;&lt;span style=&quot;&quot;&gt;Azure&lt;/span&gt;&lt;br&gt;&lt;font style=&quot;font-size: 30px;&quot;&gt;Active Directory&lt;/font&gt;&lt;/font&gt;" style="shape=hexagon;perimeter=hexagonPerimeter2;whiteSpace=wrap;html=1;fixedSize=1;sketch=1;curveFitting=1;jiggle=2;" vertex="1" parent="18">
                    <mxGeometry width="240" height="230" as="geometry"/>
                </mxCell>
                <mxCell id="3" value="&lt;font style=&quot;font-size: 30px;&quot;&gt;Onspring&lt;/font&gt;" style="whiteSpace=wrap;html=1;aspect=fixed;sketch=1;curveFitting=1;jiggle=2;" vertex="1" parent="18">
                    <mxGeometry x="720" width="235" height="235" as="geometry"/>
                </mxCell>
                <mxCell id="4" value="OnspringAzureAdSyncer" style="rounded=1;whiteSpace=wrap;html=1;fontSize=30;sketch=1;curveFitting=1;jiggle=2;" vertex="1" parent="18">
                    <mxGeometry x="270" y="440" width="400" height="200" as="geometry"/>
                </mxCell>
                <mxCell id="6" value="" style="shape=flexArrow;endArrow=classic;html=1;fontSize=29;exitX=0.5;exitY=1;exitDx=0;exitDy=0;startArrow=none;entryX=0;entryY=0.5;entryDx=0;entryDy=0;sketch=1;curveFitting=1;jiggle=2;fillColor=default;" edge="1" parent="18" source="2" target="4">
                    <mxGeometry width="50" height="50" relative="1" as="geometry">
                        <mxPoint x="460" y="450" as="sourcePoint"/>
                        <mxPoint x="290" y="460" as="targetPoint"/>
                    </mxGeometry>
                </mxCell>
                <mxCell id="7" value="" style="shape=flexArrow;endArrow=classic;html=1;fontSize=29;entryX=0.5;entryY=1;entryDx=0;entryDy=0;exitX=1;exitY=0.5;exitDx=0;exitDy=0;sketch=1;curveFitting=1;jiggle=2;fillColor=default;" edge="1" parent="18" source="4" target="3">
                    <mxGeometry width="50" height="50" relative="1" as="geometry">
                        <mxPoint x="660" y="450" as="sourcePoint"/>
                        <mxPoint x="510" y="400" as="targetPoint"/>
                    </mxGeometry>
                </mxCell>
                <mxCell id="8" value="Graph API" style="rounded=0;whiteSpace=wrap;html=1;fontSize=29;sketch=1;curveFitting=1;jiggle=2;" vertex="1" parent="18">
                    <mxGeometry x="90" y="320" width="120" height="80" as="geometry"/>
                </mxCell>
                <mxCell id="11" value="Onspring API" style="rounded=0;whiteSpace=wrap;html=1;fontSize=29;sketch=1;curveFitting=1;jiggle=2;" vertex="1" parent="18">
                    <mxGeometry x="730" y="315" width="160" height="90" as="geometry"/>
                </mxCell>
                <mxCell id="20" value="&lt;ul&gt;&lt;li&gt;Get groups data&lt;/li&gt;&lt;li&gt;Push groups data to onspring&lt;/li&gt;&lt;li&gt;Get users data with group memberships&lt;/li&gt;&lt;li&gt;Push users data to onspring&lt;/li&gt;&lt;li&gt;Update user group membership with in Onspring according to Azure membership&lt;/li&gt;&lt;/ul&gt;" style="text;html=1;strokeColor=none;fillColor=none;align=left;verticalAlign=top;whiteSpace=wrap;rounded=0;sketch=1;hachureGap=4;jiggle=2;curveFitting=1;fontFamily=Architects Daughter;fontSource=https%3A%2F%2Ffonts.googleapis.com%2Fcss%3Ffamily%3DArchitects%2BDaughter;fontSize=20;fontColor=#000000;fontStyle=1" vertex="1" parent="18">
                    <mxGeometry x="247" width="461" height="413" as="geometry"/>
                </mxCell>
            </root>
        </mxGraphModel>
    </diagram>
</mxfile>